<svg height="480pt" viewBox="0 0 480 480" width="480pt" xmlns="http://www.w3.org/2000/svg"> <path style="fill: #f7f1e3;" d="m399.832031 54.398438c-.0625-.277344-.230469-.496094-.3125-.757813-.136719-.449219-.316406-.882813-.535156-1.296875-.25-.476562-.550781-.921875-.894531-1.335938-.277344-.34375-.582032-.664062-.914063-.960937-.402343-.339844-.84375-.632813-1.3125-.878906-.394531-.238281-.8125-.441407-1.246093-.609375-.519532-.164063-1.058594-.273438-1.601563-.328125-.332031-.097657-.671875-.175781-1.015625-.230469h-40.335938c-2.0625-27.847656-14.984374-48-31.664062-48s-29.601562 20.152344-31.664062 48h-16.671876c-2.0625-27.847656-14.984374-48-31.664062-48s-29.601562 20.152344-31.664062 48h-16.671876c-2.0625-27.847656-14.984374-48-31.664062-48s-29.601562 20.152344-31.664062 48h-16.671876c-2.0625-27.847656-14.984374-48-31.664062-48s-29.601562 20.152344-31.664062 48h-40.335938c-4.417969 0-8 3.582031-8 8v416c0 4.417969 3.582031 8 8 8h384c4.417969 0 8-3.582031 8-8v-24h72c2.402344 0 4.675781-1.082031 6.191406-2.941406 1.519532-1.863282 2.121094-4.304688 1.640625-6.660156zm-79.832031-38.398438c5.777344 0 13.839844 12.257812 15.617188 32h-31.203126c1.746094-19.742188 9.808594-32 15.585938-32zm-80 0c5.777344 0 13.839844 12.257812 15.617188 32h-31.203126c1.746094-19.742188 9.808594-32 15.585938-32zm-80 0c5.777344 0 13.839844 12.257812 15.617188 32h-31.203126c1.746094-19.742188 9.808594-32 15.585938-32zm-80 0c5.777344 0 13.839844 12.257812 15.617188 32h-31.203126c1.746094-19.742188 9.808594-32 15.585938-32zm-64 48h32.335938c2.0625 27.847656 14.984374 48 31.664062 48 4.417969 0 8-3.582031 8-8s-3.582031-8-8-8c-5.777344 0-13.839844-12.257812-15.617188-32h63.953126c2.089843 27.847656 14.984374 48 31.664062 48 4.417969 0 8-3.582031 8-8s-3.582031-8-8-8c-5.777344 0-13.839844-12.257812-15.617188-32h63.953126c2.089843 27.847656 14.984374 48 31.664062 48 4.417969 0 8-3.582031 8-8s-3.582031-8-8-8c-5.777344 0-13.839844-12.257812-15.617188-32h63.953126c2.089843 27.847656 14.984374 48 31.664062 48 4.417969 0 8-3.582031 8-8s-3.582031-8-8-8c-5.777344 0-13.839844-12.257812-15.617188-32h79.617188v80h-368zm368 400h-368v-304h368zm16-32v-298.398438l62.167969 298.398438zm0 0"/> <path style="fill: #f7f1e3;" d="m176 288h-32c-4.417969 0-8 3.582031-8 8v32c0 4.417969 3.582031 8 8 8h32c4.417969 0 8-3.582031 8-8v-32c0-4.417969-3.582031-8-8-8zm-8 32h-16v-16h16zm0 0"/> <path style="fill: #f7f1e3;" d="m256 288h-32c-4.417969 0-8 3.582031-8 8v32c0 4.417969 3.582031 8 8 8h32c4.417969 0 8-3.582031 8-8v-32c0-4.417969-3.582031-8-8-8zm-8 32h-16v-16h16zm0 0"/> <path style="fill: #f7f1e3;" d="m96 288h-32c-4.417969 0-8 3.582031-8 8v32c0 4.417969 3.582031 8 8 8h32c4.417969 0 8-3.582031 8-8v-32c0-4.417969-3.582031-8-8-8zm-8 32h-16v-16h16zm0 0"/> <path style="fill: #f7f1e3;" d="m176 368h-32c-4.417969 0-8 3.582031-8 8v32c0 4.417969 3.582031 8 8 8h32c4.417969 0 8-3.582031 8-8v-32c0-4.417969-3.582031-8-8-8zm-8 32h-16v-16h16zm0 0"/> <path style="fill: #f7f1e3;" d="m256 368h-32c-4.417969 0-8 3.582031-8 8v32c0 4.417969 3.582031 8 8 8h32c4.417969 0 8-3.582031 8-8v-32c0-4.417969-3.582031-8-8-8zm-8 32h-16v-16h16zm0 0"/> <path style="fill: #f7f1e3;" d="m96 368h-32c-4.417969 0-8 3.582031-8 8v32c0 4.417969 3.582031 8 8 8h32c4.417969 0 8-3.582031 8-8v-32c0-4.417969-3.582031-8-8-8zm-8 32h-16v-16h16zm0 0"/> <path style="fill: #f7f1e3;" d="m176 208h-32c-4.417969 0-8 3.582031-8 8v32c0 4.417969 3.582031 8 8 8h32c4.417969 0 8-3.582031 8-8v-32c0-4.417969-3.582031-8-8-8zm-8 32h-16v-16h16zm0 0"/> <path style="fill: #f7f1e3;" d="m256 208h-32c-4.417969 0-8 3.582031-8 8v32c0 4.417969 3.582031 8 8 8h32c4.417969 0 8-3.582031 8-8v-32c0-4.417969-3.582031-8-8-8zm-8 32h-16v-16h16zm0 0"/> <path style="fill: #f7f1e3;" d="m336 288h-32c-4.417969 0-8 3.582031-8 8v32c0 4.417969 3.582031 8 8 8h32c4.417969 0 8-3.582031 8-8v-32c0-4.417969-3.582031-8-8-8zm-8 32h-16v-16h16zm0 0"/> <path style="fill: #f7f1e3;" d="m336 368h-32c-4.417969 0-8 3.582031-8 8v32c0 4.417969 3.582031 8 8 8h32c4.417969 0 8-3.582031 8-8v-32c0-4.417969-3.582031-8-8-8zm-8 32h-16v-16h16zm0 0"/> <path style="fill: #f7f1e3;" d="m336 208h-32c-4.417969 0-8 3.582031-8 8v32c0 4.417969 3.582031 8 8 8h32c4.417969 0 8-3.582031 8-8v-32c0-4.417969-3.582031-8-8-8zm-8 32h-16v-16h16zm0 0"/> <path style="fill: #f7f1e3;" d="m96 208h-32c-4.417969 0-8 3.582031-8 8v32c0 4.417969 3.582031 8 8 8h32c4.417969 0 8-3.582031 8-8v-32c0-4.417969-3.582031-8-8-8zm-8 32h-16v-16h16zm0 0"/></svg>